<svg height="512pt" viewBox="-16 0 512 512" width="512pt" xmlns="http://www.w3.org/2000/svg"><path d="m433.945312 386.042969h-5.355468v-231.941407c0-16.800781-13.667969-30.472656-30.472656-30.472656h-231.148438v-56.070312c0-37.25-30.238281-67.558594-67.402344-67.558594h-53.511718c-25.394532 0-46.054688 20.703125-46.054688 46.148438 0 25.445312 20.660156 46.148437 46.054688 46.148437h28.800781v264.207031c-21.957031 15.484375-36.328125 41.082032-36.328125 69.980469 0 47.152344 38.265625 85.515625 85.300781 85.515625 27.601563 0 52.183594-13.210938 67.785156-33.660156h242.328125c25.398438 0 46.058594-20.703125 46.058594-46.148438 0-25.449218-20.660156-46.148437-46.054688-46.148437zm-35.828124-232.414063c.261718 0 .476562.210938.476562.472656v231.9375h-199.621094c-7.429687-13.8125-18.539062-25.359374-32.003906-33.304687v-199.105469zm-311.0625-91.332031h-41c-8.851563 0-16.054688-7.242187-16.054688-16.148437 0-8.902344 7.203125-16.148438 16.054688-16.148438h53.511718c20.625 0 37.402344 16.851562 37.402344 37.558594v274.425781c-4.285156-.664063-8.671875-1.011719-13.140625-1.011719-6.519531 0-12.867187.738282-18.972656 2.132813v-262.996094c0-9.820313-7.984375-17.8125-17.800781-17.8125zm36.773437 419.703125c-30.492187 0-55.300781-24.902344-55.300781-55.515625 0-30.609375 24.808594-55.511719 55.300781-55.511719s55.300781 24.902344 55.300781 55.511719c0 30.613281-24.808594 55.515625-55.300781 55.515625zm310.117187-33.660156h-227.640624c1.84375-6.976563 2.824218-14.304688 2.824218-21.855469 0-3.535156-.214844-7.019531-.632812-10.441406h225.449218c8.851563 0 16.054688 7.242187 16.054688 16.148437 0 8.902344-7.203125 16.148438-16.054688 16.148438zm0 0"/><path d="m123.828125 402.972656c-8.285156 0-15 6.714844-15 15v17.027344c0 8.285156 6.714844 15 15 15s15-6.714844 15-15v-17.027344c0-8.285156-6.714844-15-15-15zm0 0"/><path d="m244.453125 318.667969c3.394531 3.394531 7.855469 5.089843 12.3125 5.089843s8.917969-1.695312 12.3125-5.089843l82.539063-82.542969c5.859374-5.855469 5.859374-15.355469 0-21.210938-5.855469-5.859374-15.351563-5.859374-21.210938 0l-73.640625 73.640626-21.613281-21.613282c-5.855469-5.859375-15.355469-5.859375-21.210938 0-5.859375 5.859375-5.859375 15.355469 0 21.210938zm0 0"/></svg>