<svg id="Capa_1" enable-background="new 0 0 512 512" height="512" viewBox="0 0 512 512" width="512" xmlns="http://www.w3.org/2000/svg"><g><path d="m286 0h-210c-24.813 0-45 20.187-45 45v422c0 24.813 20.187 45 45 45h210c24.813 0 45-20.187 45-45v-106h105c8.284 0 15-6.716 15-15v-45h15c8.284 0 15-6.716 15-15v-60c0-8.284-6.716-15-15-15h-15v-45c0-8.284-6.716-15-15-15h-53.787l-51.213-51.213v-54.787c0-24.813-20.187-45-45-45zm15 467c0 8.271-6.729 15-15 15h-210c-8.271 0-15-6.729-15-15v-422c0-8.271 6.729-15 15-15h210c8.271 0 15 6.729 15 15v54.787l-51.213 51.213h-53.787c-24.813 0-45 20.187-45 45v120c0 24.813 20.187 45 45 45h105zm150-196h-60v-30h60zm-30-60h-45c-8.284 0-15 6.716-15 15v60c0 8.284 6.716 15 15 15h45v30h-225c-8.271 0-15-6.729-15-15v-120c0-8.271 6.729-15 15-15h225zm-128.787-60 23.787-23.787 23.787 23.787z"/><path d="m136 437c0 8.284 6.716 15 15 15h60c8.284 0 15-6.716 15-15s-6.716-15-15-15h-60c-8.284 0-15 6.716-15 15z"/><path d="m151 90h60c8.284 0 15-6.716 15-15s-6.716-15-15-15h-60c-8.284 0-15 6.716-15 15s6.716 15 15 15z"/></g></svg>