<svg id="Capa_1" enable-background="new 0 0 512 512" height="512" viewBox="0 0 512 512" width="512" xmlns="http://www.w3.org/2000/svg"><g><path d="m468.089 139.938-22.908-99.125-428.927 99.125h-16.254v331.25h512v-331.25zm-45.382-63.141 14.592 63.141h-287.81zm-392.707 93.141h58.872c-5.991 29.55-29.321 52.88-58.872 58.871zm0 271.25v-58.872c29.551 5.991 52.881 29.321 58.872 58.872zm452 0h-58.872c5.991-29.551 29.321-52.881 58.872-58.872zm0-89.303c-46.123 6.602-82.7 43.18-89.303 89.303h-273.394c-6.602-46.123-43.18-82.7-89.303-89.303v-92.645c46.123-6.602 82.7-43.18 89.303-89.303h273.395c6.603 46.123 43.18 82.7 89.303 89.303v92.645zm0-123.076c-29.551-5.991-52.881-29.321-58.872-58.872h58.872z"/><path d="m105.375 260.438c-24.882 0-45.125 20.243-45.125 45.125s20.243 45.125 45.125 45.125 45.125-20.243 45.125-45.125-20.243-45.125-45.125-45.125zm0 60.25c-8.34 0-15.125-6.785-15.125-15.125s6.785-15.125 15.125-15.125 15.125 6.785 15.125 15.125c0 8.339-6.785 15.125-15.125 15.125z"/><path d="m361.5 305.562c0 24.882 20.243 45.125 45.125 45.125s45.125-20.243 45.125-45.125-20.243-45.125-45.125-45.125-45.125 20.244-45.125 45.125zm60.25 0c0 8.34-6.785 15.125-15.125 15.125s-15.125-6.785-15.125-15.125 6.785-15.125 15.125-15.125 15.125 6.786 15.125 15.125z"/><path d="m264.578 290.562h-17.156c-8.951 0-16.233-7.282-16.233-16.233s7.282-16.233 16.233-16.233h16.763c8.961 0 16.252 7.29 16.252 16.252h30c0-23.188-17.154-42.441-39.437-45.746v-21.441h-30v21.392c-22.463 3.137-39.811 22.464-39.811 45.777 0 25.493 20.74 46.233 46.233 46.233h17.156c8.951 0 16.233 7.282 16.233 16.233s-7.282 16.233-16.233 16.233h-17.461c-8.646 0-15.68-7.034-15.68-15.68h-30c0 23.113 17.259 42.259 39.563 45.259v21.357h30v-21.391c22.463-3.137 39.811-22.464 39.811-45.777 0-25.494-20.74-46.235-46.233-46.235z"/></g></svg>